<svg xmlns="http://www.w3.org/2000/svg" width="1200" height="260" viewBox="0 0 1200 260" fill="none">
  <path d="M240 97.5A36 36 0 1 0 204 133.5L204 126.5A29 29 0 1 1 233 97.5ZM168 162.5A36 36 0 1 0 204 126.5L204 133.5A29 29 0 1 1 175 162.5Z" fill="#F1EDE4"/>
  <path d="M330 65H337V195H330ZM415 65H422V195H415ZM337 126.5H415V133.5H337Z" fill="#F1EDE4"/>
  <path d="M560 195L560 107L536 107L536 195ZM553 199L553 124L543 124L543 199Z" fill="#F1EDE4" fill-rule="evenodd"/>
  <path d="M487.51 68.49L543.05 124.02L560.02 107.05L504.49 51.51ZM489.64 60.71L535.98 107.05L543.05 99.98L496.71 53.64Z" fill="#F1EDE4" fill-rule="evenodd"/>
  <path d="M591.51 51.51L535.98 107.05L552.95 124.02L608.49 68.49ZM599.29 53.64L552.95 99.98L560.02 107.05L606.36 60.71Z" fill="#F1EDE4" fill-rule="evenodd"/>
  <path d="M688 130A64 65 0 1 1 816 130A64 65 0 1 1 688 130ZM695 130A57 58 0 1 1 809 130A57 58 0 1 1 695 130Z" fill="#F1EDE4" fill-rule="evenodd"/>
  <path d="M878.64 65.97L916.14 195.97L922.86 194.03L885.36 64.03ZM922.86 195.97L960.36 65.97L953.64 64.03L916.14 194.03ZM953.64 65.97L991.14 195.97L997.86 194.03L960.36 64.03ZM997.86 195.97L1035.36 65.97L1028.64 64.03L991.14 194.03Z" fill="#F1EDE4"/>
</svg>
